<svg width="49" height="10" viewBox="0 0 49 10" fill="none" xmlns="http://www.w3.org/2000/svg">
<path d="M7.55469 7.92188C7.23828 8.30078 6.79102 8.5957 6.21289 8.80664C5.63477 9.01367 4.99414 9.11719 4.29102 9.11719C3.55273 9.11719 2.9043 8.95703 2.3457 8.63672C1.79102 8.3125 1.36133 7.84375 1.05664 7.23047C0.755859 6.61719 0.601562 5.89648 0.59375 5.06836V4.48828C0.59375 3.63672 0.736328 2.90039 1.02148 2.2793C1.31055 1.6543 1.72461 1.17773 2.26367 0.849609C2.80664 0.517578 3.44141 0.351562 4.16797 0.351562C5.17969 0.351562 5.9707 0.59375 6.54102 1.07812C7.11133 1.55859 7.44922 2.25977 7.55469 3.18164H5.84375C5.76562 2.69336 5.5918 2.33594 5.32227 2.10938C5.05664 1.88281 4.68945 1.76953 4.2207 1.76953C3.62305 1.76953 3.16797 1.99414 2.85547 2.44336C2.54297 2.89258 2.38477 3.56055 2.38086 4.44727V4.99219C2.38086 5.88672 2.55078 6.5625 2.89062 7.01953C3.23047 7.47656 3.72852 7.70508 4.38477 7.70508C5.04492 7.70508 5.51562 7.56445 5.79688 7.2832V5.8125H4.19727V4.51758H7.55469V7.92188ZM14.1172 5.30273H10.7422V7.58789H14.7031V9H8.98438V0.46875H14.6914V1.89258H10.7422V3.92578H14.1172V5.30273ZM20.1582 6.76172C20.1582 6.42969 20.041 6.17578 19.8066 6C19.5723 5.82031 19.1504 5.63281 18.541 5.4375C17.9316 5.23828 17.4492 5.04297 17.0938 4.85156C16.125 4.32812 15.6406 3.62305 15.6406 2.73633C15.6406 2.27539 15.7695 1.86523 16.0273 1.50586C16.2891 1.14258 16.6621 0.859375 17.1465 0.65625C17.6348 0.453125 18.1816 0.351562 18.7871 0.351562C19.3965 0.351562 19.9395 0.462891 20.416 0.685547C20.8926 0.904297 21.2617 1.21484 21.5234 1.61719C21.7891 2.01953 21.9219 2.47656 21.9219 2.98828H20.1641C20.1641 2.59766 20.041 2.29492 19.7949 2.08008C19.5488 1.86133 19.2031 1.75195 18.7578 1.75195C18.3281 1.75195 17.9941 1.84375 17.7559 2.02734C17.5176 2.20703 17.3984 2.44531 17.3984 2.74219C17.3984 3.01953 17.5371 3.25195 17.8145 3.43945C18.0957 3.62695 18.5078 3.80273 19.0508 3.9668C20.0508 4.26758 20.7793 4.64062 21.2363 5.08594C21.6934 5.53125 21.9219 6.08594 21.9219 6.75C21.9219 7.48828 21.6426 8.06836 21.084 8.49023C20.5254 8.9082 19.7734 9.11719 18.8281 9.11719C18.1719 9.11719 17.5742 8.99805 17.0352 8.75977C16.4961 8.51758 16.084 8.1875 15.7988 7.76953C15.5176 7.35156 15.377 6.86719 15.377 6.31641H17.1406C17.1406 7.25781 17.7031 7.72852 18.8281 7.72852C19.2461 7.72852 19.5723 7.64453 19.8066 7.47656C20.041 7.30469 20.1582 7.06641 20.1582 6.76172ZM25.4141 0.46875L27.6055 6.65625L29.7852 0.46875H32.0938V9H30.3301V6.66797L30.5059 2.64258L28.2031 9H26.9961L24.6992 2.64844L24.875 6.66797V9H23.1172V0.46875H25.4141ZM40.6367 4.92773C40.6367 5.76758 40.4883 6.50391 40.1914 7.13672C39.8945 7.76953 39.4688 8.25781 38.9141 8.60156C38.3633 8.94531 37.7305 9.11719 37.0156 9.11719C36.3086 9.11719 35.6777 8.94727 35.123 8.60742C34.5684 8.26758 34.1387 7.7832 33.834 7.1543C33.5293 6.52148 33.375 5.79492 33.3711 4.97461V4.55273C33.3711 3.71289 33.5215 2.97461 33.8223 2.33789C34.127 1.69727 34.5547 1.20703 35.1055 0.867188C35.6602 0.523437 36.293 0.351562 37.0039 0.351562C37.7148 0.351562 38.3457 0.523437 38.8965 0.867188C39.4512 1.20703 39.8789 1.69727 40.1797 2.33789C40.4844 2.97461 40.6367 3.71094 40.6367 4.54688V4.92773ZM38.8555 4.54102C38.8555 3.64648 38.6953 2.9668 38.375 2.50195C38.0547 2.03711 37.5977 1.80469 37.0039 1.80469C36.4141 1.80469 35.959 2.03516 35.6387 2.49609C35.3184 2.95312 35.1562 3.625 35.1523 4.51172V4.92773C35.1523 5.79883 35.3125 6.47461 35.6328 6.95508C35.9531 7.43555 36.4141 7.67578 37.0156 7.67578C37.6055 7.67578 38.0586 7.44531 38.375 6.98438C38.6914 6.51953 38.8516 5.84375 38.8555 4.95703V4.54102ZM41.9141 9V0.46875H44.5391C45.2891 0.46875 45.959 0.638672 46.5488 0.978516C47.1426 1.31445 47.6055 1.79492 47.9375 2.41992C48.2695 3.04102 48.4355 3.74805 48.4355 4.54102V4.93359C48.4355 5.72656 48.2715 6.43164 47.9434 7.04883C47.6191 7.66602 47.1602 8.14453 46.5664 8.48438C45.9727 8.82422 45.3027 8.99609 44.5566 9H41.9141ZM43.6719 1.89258V7.58789H44.5215C45.209 7.58789 45.7344 7.36328 46.0977 6.91406C46.4609 6.46484 46.6465 5.82227 46.6543 4.98633V4.53516C46.6543 3.66797 46.4746 3.01172 46.1152 2.56641C45.7559 2.11719 45.2305 1.89258 44.5391 1.89258H43.6719Z" fill="black"/>
</svg>
