<svg width="40" height="22" viewBox="0 0 40 22" fill="none" xmlns="http://www.w3.org/2000/svg">
<path d="M9.75097 12.166C10.4417 12.0707 11.0154 12.6939 10.8635 13.3745L9.81342 18.0789C9.63754 18.8669 8.64858 19.1323 8.10174 18.5384L4.3768 14.4923C3.82996 13.8983 4.17611 12.9346 4.97591 12.8244L9.75097 12.166Z" fill="black"/>
<path d="M16.0586 10.4688L18.25 16.6562L20.4297 10.4688H22.7383V19H20.9746V16.668L21.1504 12.6426L18.8476 19H17.6406L15.3437 12.6484L15.5195 16.668V19H13.7617V10.4688H16.0586ZM31.2812 14.9277C31.2812 15.7676 31.1328 16.5039 30.8359 17.1367C30.5391 17.7695 30.1133 18.2578 29.5586 18.6016C29.0078 18.9453 28.375 19.1172 27.6601 19.1172C26.9531 19.1172 26.3223 18.9473 25.7676 18.6074C25.2129 18.2676 24.7832 17.7832 24.4785 17.1543C24.1738 16.5215 24.0195 15.7949 24.0156 14.9746V14.5527C24.0156 13.7129 24.166 12.9746 24.4668 12.3379C24.7715 11.6973 25.1992 11.207 25.75 10.8672C26.3047 10.5234 26.9375 10.3516 27.6484 10.3516C28.3594 10.3516 28.9902 10.5234 29.541 10.8672C30.0957 11.207 30.5234 11.6973 30.8242 12.3379C31.1289 12.9746 31.2812 13.7109 31.2812 14.5469V14.9277ZM29.5 14.541C29.5 13.6465 29.3398 12.9668 29.0195 12.502C28.6992 12.0371 28.2422 11.8047 27.6484 11.8047C27.0586 11.8047 26.6035 12.0352 26.2832 12.4961C25.9629 12.9531 25.8008 13.625 25.7969 14.5117V14.9277C25.7969 15.7988 25.957 16.4746 26.2773 16.9551C26.5976 17.4355 27.0586 17.6758 27.6601 17.6758C28.25 17.6758 28.7031 17.4453 29.0195 16.9844C29.3359 16.5195 29.4961 15.8438 29.5 14.957V14.541ZM32.5586 19V10.4688H35.1836C35.9336 10.4688 36.6035 10.6387 37.1933 10.9785C37.7871 11.3145 38.25 11.7949 38.582 12.4199C38.9141 13.041 39.0801 13.748 39.0801 14.541V14.9336C39.0801 15.7266 38.916 16.4316 38.5879 17.0488C38.2637 17.666 37.8047 18.1445 37.2109 18.4844C36.6172 18.8242 35.9473 18.9961 35.2012 19H32.5586ZM34.3164 11.8926V17.5879H35.166C35.8535 17.5879 36.3789 17.3633 36.7422 16.9141C37.1055 16.4648 37.291 15.8223 37.2988 14.9863V14.5352C37.2988 13.668 37.1191 13.0117 36.7598 12.5664C36.4004 12.1172 35.875 11.8926 35.1836 11.8926H34.3164Z" fill="black"/>
<path d="M9.19921 8.92188C8.8828 9.30078 8.43554 9.5957 7.85741 9.80664C7.27929 10.0137 6.63866 10.1172 5.93554 10.1172C5.19726 10.1172 4.54882 9.95703 3.99022 9.63672C3.43554 9.3125 3.00585 8.84375 2.70116 8.23047C2.40038 7.61719 2.24608 6.89648 2.23827 6.06836V5.48828C2.23827 4.63672 2.38085 3.90039 2.66601 3.2793C2.95507 2.6543 3.36913 2.17773 3.90819 1.84961C4.45116 1.51758 5.08593 1.35156 5.81249 1.35156C6.82421 1.35156 7.61522 1.59375 8.18554 2.07812C8.75585 2.55859 9.09374 3.25977 9.19921 4.18164H7.48827C7.41015 3.69336 7.23632 3.33594 6.96679 3.10938C6.70116 2.88281 6.33397 2.76953 5.86522 2.76953C5.26757 2.76953 4.81249 2.99414 4.49999 3.44336C4.18749 3.89258 4.02929 4.56055 4.02538 5.44727V5.99219C4.02538 6.88672 4.1953 7.5625 4.53515 8.01953C4.87499 8.47656 5.37304 8.70508 6.02929 8.70508C6.68944 8.70508 7.16015 8.56445 7.4414 8.2832V6.8125H5.84179V5.51758H9.19921V8.92188ZM15.7617 6.30273H12.3867V8.58789H16.3476V10H10.6289V1.46875H16.3359V2.89258H12.3867V4.92578H15.7617V6.30273ZM21.8027 7.76172C21.8027 7.42969 21.6855 7.17578 21.4512 7C21.2168 6.82031 20.7949 6.63281 20.1855 6.4375C19.5762 6.23828 19.0937 6.04297 18.7383 5.85156C17.7695 5.32812 17.2851 4.62305 17.2851 3.73633C17.2851 3.27539 17.4141 2.86523 17.6719 2.50586C17.9336 2.14258 18.3066 1.85938 18.791 1.65625C19.2793 1.45312 19.8262 1.35156 20.4316 1.35156C21.041 1.35156 21.584 1.46289 22.0605 1.68555C22.5371 1.9043 22.9062 2.21484 23.168 2.61719C23.4336 3.01953 23.5664 3.47656 23.5664 3.98828H21.8086C21.8086 3.59766 21.6855 3.29492 21.4394 3.08008C21.1933 2.86133 20.8476 2.75195 20.4023 2.75195C19.9726 2.75195 19.6387 2.84375 19.4004 3.02734C19.1621 3.20703 19.043 3.44531 19.043 3.74219C19.043 4.01953 19.1816 4.25195 19.459 4.43945C19.7402 4.62695 20.1523 4.80273 20.6953 4.9668C21.6953 5.26758 22.4238 5.64062 22.8808 6.08594C23.3379 6.53125 23.5664 7.08594 23.5664 7.75C23.5664 8.48828 23.2871 9.06836 22.7285 9.49023C22.1699 9.9082 21.418 10.1172 20.4726 10.1172C19.8164 10.1172 19.2187 9.99805 18.6797 9.75977C18.1406 9.51758 17.7285 9.1875 17.4433 8.76953C17.1621 8.35156 17.0215 7.86719 17.0215 7.31641H18.7851C18.7851 8.25781 19.3476 8.72852 20.4726 8.72852C20.8906 8.72852 21.2168 8.64453 21.4512 8.47656C21.6855 8.30469 21.8027 8.06641 21.8027 7.76172Z" fill="black"/>
</svg>
